<?xml version="1.0" standalone="no"?>
 <!DOCTYPE svg PUBLIC "-//W3C//DTD SVG 1.1//EN" 
 "http://www.w3.org/Graphics/SVG/1.1/DTD/svg11.dtd"> 
<svg
  xmlns:svg="http://www.w3.org/2000/svg"
  xmlns="http://www.w3.org/2000/svg"
  xmlns:xlink="http://www.w3.org/1999/xlink"
  version="1.1"
  width="25.689560cm" height="22.809200cm" viewBox="0 0 256895600 228092000">
<title>SVG Picture created as cv_fader_bank_faceplate-Edge_Cuts.svg date 2022/07/03 15:57:57 </title>
  <desc>Picture generated by PCBNEW </desc>
<g style="fill:#000000; fill-opacity:1.000000;stroke:#000000; stroke-opacity:1.000000;
stroke-linecap:round; stroke-linejoin:round;"
 transform="translate(0 0) scale(1 1)">
</g>
<g style="fill:#000000; fill-opacity:0.0; 
stroke:#000000; stroke-width:0.000000; stroke-opacity:1; 
stroke-linecap:round; stroke-linejoin:round;">
</g>
<g style="fill:#D0D2CD; fill-opacity:0.0; 
stroke:#D0D2CD; stroke-width:0.000000; stroke-opacity:1; 
stroke-linecap:round; stroke-linejoin:round;">
</g>
<g style="fill:#D0D2CD; fill-opacity:0.0; 
stroke:#D0D2CD; stroke-width:100000.000000; stroke-opacity:1; 
stroke-linecap:round; stroke-linejoin:round;">
<circle cx="35120000.000000" cy="60000000.000000" r="3050000.000000" /> 
<circle cx="80840000.000000" cy="60000000.000000" r="3050000.000000" /> 
<path d="M49110000 91000000
L49110000 140500000
" />
<circle cx="50360000.000000" cy="60000000.000000" r="3050000.000000" /> 
<path d="M126560000.000000 141750000.000000 A1250000.000000 1250000.000000 0.0 0 0 127810000.000000 140500000.000000" />
<circle cx="65600000.000000" cy="77500000.000000" r="2550000.000000" /> 
<path d="M110070000.000000 140500000.000000 A1250000.000000 1250000.000000 0.0 0 0 111320000.000000 141750000.000000" />
<circle cx="141800000.000000" cy="77500000.000000" r="2550000.000000" /> 
<path d="M112570000 91000000
L112570000 140500000
" />
<path d="M33870000.000000 140500000.000000 A1250000.000000 1250000.000000 0.0 0 0 35120000.000000 141750000.000000" />
<path d="M143050000.000000 91000000.000000 A1250000.000000 1250000.000000 0.0 0 0 141800000.000000 89750000.000000" />
<path d="M126560000.000000 89750000.000000 A1250000.000000 1250000.000000 0.0 0 0 125310000.000000 91000000.000000" />
<circle cx="65600000.000000" cy="152875000.000000" r="4500000.000000" /> 
<path d="M82090000.000000 91000000.000000 A1250000.000000 1250000.000000 0.0 0 0 80840000.000000 89750000.000000" />
<path d="M79590000.000000 140500000.000000 A1250000.000000 1250000.000000 0.0 0 0 80840000.000000 141750000.000000" />
<path d="M94830000.000000 140500000.000000 A1250000.000000 1250000.000000 0.0 0 0 96080000.000000 141750000.000000" />
</g>
<g style="fill:#D0D2CD; fill-opacity:0.0; 
stroke:#D0D2CD; stroke-width:150000.000000; stroke-opacity:1; 
stroke-linecap:round; stroke-linejoin:round;">
<circle cx="35000000.000000" cy="43000000.000000" r="1600000.000000" /> 
</g>
<g style="fill:#D0D2CD; fill-opacity:0.0; 
stroke:#D0D2CD; stroke-width:100000.000000; stroke-opacity:1; 
stroke-linecap:round; stroke-linejoin:round;">
<path d="M35120000.000000 89750000.000000 A1250000.000000 1250000.000000 0.0 0 0 33870000.000000 91000000.000000" />
<path d="M96080000.000000 141750000.000000 A1250000.000000 1250000.000000 0.0 0 0 97330000.000000 140500000.000000" />
<path d="M51610000.000000 91000000.000000 A1250000.000000 1250000.000000 0.0 0 0 50360000.000000 89750000.000000" />
<path d="M49110000.000000 140500000.000000 A1250000.000000 1250000.000000 0.0 0 0 50360000.000000 141750000.000000" />
<path d="M65600000.000000 89750000.000000 A1250000.000000 1250000.000000 0.0 0 0 64350000.000000 91000000.000000" />
</g>
<g style="fill:#D0D2CD; fill-opacity:0.0; 
stroke:#D0D2CD; stroke-width:150000.000000; stroke-opacity:1; 
stroke-linecap:round; stroke-linejoin:round;">
<circle cx="35000000.000000" cy="165500000.000000" r="1600000.000000" /> 
</g>
<g style="fill:#D0D2CD; fill-opacity:0.0; 
stroke:#D0D2CD; stroke-width:100000.000000; stroke-opacity:1; 
stroke-linecap:round; stroke-linejoin:round;">
<path d="M64350000.000000 140500000.000000 A1250000.000000 1250000.000000 0.0 0 0 65600000.000000 141750000.000000" />
<path d="M97330000 91000000
L97330000 140500000
" />
<circle cx="35120000.000000" cy="152875000.000000" r="4500000.000000" /> 
<path d="M51610000 91000000
L51610000 140500000
" />
<path d="M80840000.000000 89750000.000000 A1250000.000000 1250000.000000 0.0 0 0 79590000.000000 91000000.000000" />
<circle cx="111320000.000000" cy="60000000.000000" r="3050000.000000" /> 
<path d="M125310000 91000000
L125310000 140500000
" />
<circle cx="42740000.000000" cy="152875000.000000" r="1575000.000000" /> 
<path d="M36370000.000000 91000000.000000 A1250000.000000 1250000.000000 0.0 0 0 35120000.000000 89750000.000000" />
<path d="M141800000.000000 141750000.000000 A1250000.000000 1250000.000000 0.0 0 0 143050000.000000 140500000.000000" />
<path d="M111320000.000000 89750000.000000 A1250000.000000 1250000.000000 0.0 0 0 110070000.000000 91000000.000000" />
<circle cx="111320000.000000" cy="77500000.000000" r="2550000.000000" /> 
</g>
<g style="fill:#D0D2CD; fill-opacity:0.0; 
stroke:#D0D2CD; stroke-width:150000.000000; stroke-opacity:1; 
stroke-linecap:round; stroke-linejoin:round;">
<circle cx="141680000.000000" cy="43000000.000000" r="1600000.000000" /> 
</g>
<g style="fill:#D0D2CD; fill-opacity:0.0; 
stroke:#D0D2CD; stroke-width:100000.000000; stroke-opacity:1; 
stroke-linecap:round; stroke-linejoin:round;">
<path d="M33870000 91000000
L33870000 140500000
" />
<circle cx="134180000.000000" cy="152875000.000000" r="1575000.000000" /> 
<path d="M140550000 91000000
L140550000 140500000
" />
<circle cx="96080000.000000" cy="60000000.000000" r="3050000.000000" /> 
<path d="M96080000.000000 89750000.000000 A1250000.000000 1250000.000000 0.0 0 0 94830000.000000 91000000.000000" />
<path d="M66850000 91000000
L66850000 140500000
" />
<path d="M50360000.000000 89750000.000000 A1250000.000000 1250000.000000 0.0 0 0 49110000.000000 91000000.000000" />
<path d="M35120000.000000 141750000.000000 A1250000.000000 1250000.000000 0.0 0 0 36370000.000000 140500000.000000" />
<circle cx="141800000.000000" cy="60000000.000000" r="3050000.000000" /> 
<circle cx="126560000.000000" cy="77500000.000000" r="2550000.000000" /> 
<circle cx="96080000.000000" cy="152875000.000000" r="4500000.000000" /> 
<circle cx="50360000.000000" cy="77500000.000000" r="2550000.000000" /> 
</g>
<g style="fill:#D0D2CD; fill-opacity:0.0; 
stroke:#D0D2CD; stroke-width:150000.000000; stroke-opacity:1; 
stroke-linecap:round; stroke-linejoin:round;">
<circle cx="141680000.000000" cy="165500000.000000" r="1600000.000000" /> 
</g>
<g style="fill:#D0D2CD; fill-opacity:0.0; 
stroke:#D0D2CD; stroke-width:100000.000000; stroke-opacity:1; 
stroke-linecap:round; stroke-linejoin:round;">
<circle cx="96080000.000000" cy="77500000.000000" r="2550000.000000" /> 
<path d="M79590000 91000000
L79590000 140500000
" />
<path d="M141800000.000000 89750000.000000 A1250000.000000 1250000.000000 0.0 0 0 140550000.000000 91000000.000000" />
<circle cx="126560000.000000" cy="152875000.000000" r="4500000.000000" /> 
<path d="M127810000.000000 91000000.000000 A1250000.000000 1250000.000000 0.0 0 0 126560000.000000 89750000.000000" />
<circle cx="80840000.000000" cy="77500000.000000" r="2550000.000000" /> 
<path d="M65600000.000000 141750000.000000 A1250000.000000 1250000.000000 0.0 0 0 66850000.000000 140500000.000000" />
<path d="M125310000.000000 140500000.000000 A1250000.000000 1250000.000000 0.0 0 0 126560000.000000 141750000.000000" />
<path d="M97330000.000000 91000000.000000 A1250000.000000 1250000.000000 0.0 0 0 96080000.000000 89750000.000000" />
<circle cx="111320000.000000" cy="152875000.000000" r="4500000.000000" /> 
<path d="M36370000 91000000
L36370000 140500000
" />
<circle cx="88460000.000000" cy="152875000.000000" r="1575000.000000" /> 
<path d="M111320000.000000 141750000.000000 A1250000.000000 1250000.000000 0.0 0 0 112570000.000000 140500000.000000" />
<path d="M82090000 91000000
L82090000 140500000
" />
<circle cx="65600000.000000" cy="60000000.000000" r="3050000.000000" /> 
<circle cx="80840000.000000" cy="152875000.000000" r="4500000.000000" /> 
<path d="M80840000.000000 141750000.000000 A1250000.000000 1250000.000000 0.0 0 0 82090000.000000 140500000.000000" />
<circle cx="50360000.000000" cy="152875000.000000" r="4500000.000000" /> 
<circle cx="35120000.000000" cy="77500000.000000" r="2550000.000000" /> 
<path d="M94830000 91000000
L94830000 140500000
" />
<circle cx="126560000.000000" cy="60000000.000000" r="3050000.000000" /> 
<path d="M143050000 91000000
L143050000 140500000
" />
<path d="M112570000.000000 91000000.000000 A1250000.000000 1250000.000000 0.0 0 0 111320000.000000 89750000.000000" />
<path d="M64350000 91000000
L64350000 140500000
" />
<path d="M66850000.000000 91000000.000000 A1250000.000000 1250000.000000 0.0 0 0 65600000.000000 89750000.000000" />
<circle cx="141800000.000000" cy="152875000.000000" r="4500000.000000" /> 
<path d="M127810000 91000000
L127810000 140500000
" />
</g>
<g style="fill:#D0D2CD; fill-opacity:0.0; 
stroke:#D0D2CD; stroke-width:150000.000000; stroke-opacity:1; 
stroke-linecap:round; stroke-linejoin:round;">
<path d="M27710000 40000000
L149210000 40000000
" />
<path d="M149210000 40000000
L149210000 168500000
" />
<path d="M149210000 168500000
L27710000 168500000
" />
<path d="M27710000 168500000
L27710000 40000000
" />
</g>
<g style="fill:#D0D2CD; fill-opacity:0.0; 
stroke:#D0D2CD; stroke-width:100000.000000; stroke-opacity:1; 
stroke-linecap:round; stroke-linejoin:round;">
<path d="M50360000.000000 141750000.000000 A1250000.000000 1250000.000000 0.0 0 0 51610000.000000 140500000.000000" />
<path d="M140550000.000000 140500000.000000 A1250000.000000 1250000.000000 0.0 0 0 141800000.000000 141750000.000000" />
<path d="M110070000 91000000
L110070000 140500000
" />
<g >
</g>
<g >
</g>
<g >
</g>
<g >
</g>
<g >
</g>
<g >
</g>
<g >
</g>
<g >
</g>
</g> 
</svg>
